<svg viewBox="0 0 298.22 298.22" xmlns="http://www.w3.org/2000/svg" xmlns:xlink="http://www.w3.org/1999/xlink"><linearGradient id="a" gradientTransform="matrix(0 1 1 0 -110.63 -138.56)" gradientUnits="userSpaceOnUse" x1="193.31" x2="451.42" y1="423.74" y2="149.43"><stop offset="0" stop-color="#e41359"/><stop offset="1" stop-color="#f23c79"/></linearGradient><linearGradient id="b" gradientTransform="matrix(1 0 0 -1 0 362)" gradientUnits="userSpaceOnUse" x1="129.56" x2="230.2" y1="300.67" y2="63.57"><stop offset="0" stop-color="#24222f"/><stop offset="1" stop-color="#2b2937"/></linearGradient><rect fill="url(#a)" height="274.32" rx="98.83" transform="matrix(.39073113 -.92050485 .92050485 .39073113 -86.91 244.47)" width="274.32" x="42.84" y="42.84"/><g transform="translate(-30.88 -30.89)"><path d="m61.33 230.2c-15.11-35.59-22.66-53.39-23.12-69.87a87.27 87.27 0 0 1 26.18-64.8c11.78-11.53 29.61-19.09 65.17-34.2s53.38-22.66 69.87-23.12a87.29 87.29 0 0 1 64.8 26.18c11.54 11.78 19.09 29.58 34.2 65.17s22.66 53.38 23.12 69.87a87.29 87.29 0 0 1 -26.18 64.8c-11.79 11.54-29.58 19.09-65.17 34.2s-53.39 22.66-69.87 23.12a87.27 87.27 0 0 1 -64.8-26.18c-11.53-11.79-19.09-29.58-34.2-65.17z" fill="url(#b)" fill-rule="evenodd"/><path d="m219.57 130.75c22.79 0 39.69 16.7 39.69 43.82v54.43h-32v-49.32c0-13.56-6.48-20.05-17.09-20.05-4.92 0-9.83 2.17-14.54 7.86.19 2.36.39 4.72.39 7.08v54.43h-31.87v-49.32c0-13.56-6.68-20.05-17.09-20.05-4.91 0-9.63 2.36-14.35 8.45v60.92h-31.83v-95.3h31.83v5.69c6.49-5.5 13.17-8.64 23.78-8.64 12 0 22.21 4.52 29.28 12.77 10.02-8.84 19.65-12.77 33.8-12.77z" fill="#fff" fill-rule="evenodd"/><path d="m329.11 252.61v-3.2a55.1 55.1 0 0 0 -.6-7 22.32 22.32 0 0 0 -2.2-6.6 20.74 20.74 0 0 0 -4.1-5.6 24.4 24.4 0 0 0 -5.6-4.1 22.32 22.32 0 0 0 -6.6-2.2 40.49 40.49 0 0 0 -7-.6h-53.7a9.15 9.15 0 0 0 -1.7.1 45.73 45.73 0 0 0 -5.2.5 28.51 28.51 0 0 0 -5 1.4c-.5.2-1.1.5-1.6.7a25.74 25.74 0 0 0 -4.4 2.9c-.4.4-.9.8-1.3 1.2a24.4 24.4 0 0 0 -4.1 5.6 22.32 22.32 0 0 0 -2.2 6.6 53.57 53.57 0 0 0 -.6 7v53.69a55.1 55.1 0 0 0 .6 7 22.32 22.32 0 0 0 2.2 6.6 20.74 20.74 0 0 0 4.1 5.6 24.4 24.4 0 0 0 5.6 4.1 22.32 22.32 0 0 0 6.6 2.2 40.49 40.49 0 0 0 7 .6h53.69a55.1 55.1 0 0 0 7-.6 22.32 22.32 0 0 0 6.6-2.2 20.74 20.74 0 0 0 5.6-4.1 24.4 24.4 0 0 0 4.1-5.6 22.32 22.32 0 0 0 2.2-6.6 40.49 40.49 0 0 0 .6-7v-50.4z" fill="#f05138"/><path d="m307 288.71.3-1.2c4.4-17.5-6.3-38.3-24.5-49.2 8 10.8 11.5 23.9 8.4 35.3-.3 1-.6 2-1 3a7.58 7.58 0 0 0 -1.6-.9 231.49 231.49 0 0 1 -37.7-30.9 236.75 236.75 0 0 0 22.9 28.8c-5.9-3.3-22.2-15.2-32.6-24.6a52.4 52.4 0 0 0 4.4 6.1c8.6 11 19.9 24.5 33.4 34.9-9.5 5.8-22.9 6.3-36.2 0a54.18 54.18 0 0 1 -9.3-5.5 55.69 55.69 0 0 0 24.9 21.4c12.6 5.4 25.2 5.1 34.5.1a.1.1 0 0 0 .1-.1c.4-.2.8-.5 1.2-.7 4.5-2.3 13.3-4.6 18.1 4.6 1.4 2.1 3.9-9.9-5.3-21.1z" fill="#fff"/></g></svg>